#!OML:ASF F:\twosubjects\two\Thursday\Session 1\justin.ASF
:FULLY-SPECIFIED
:DEGREES
487
root 13.3476 6.69409 -16.3354 -0.138195 -74.7517 -4.63122
lowerback 34.9664 1.81956 1.01059
upperback 8.69127 2.31868 5.3973
thorax -8.31042 0.641793 4.36424
lowerneck -18.9861 10.998 -1.0845
upperneck 10.1998 15.6253 -3.71336
head 6.36674 7.19798 0.678423
rclavicle 1.27222e-014 -3.18055e-014
rhumerus -25.6275 -28.8753 -62.1571
rradius 36.2321
rwrist -5.07782
rhand -17.8416 15.3802
rfingers 7.12502
rthumb 8.4232 -14.4319
lclavicle 1.27222e-014 -3.18055e-014
lhumerus -25.1158 15.291 77.4566
lradius 38.6662
lwrist -13.8248
lhand -0.930233 37.9773
lfingers 7.12502
lthumb 24.6991 66.403
rfemur -194.502 -88.0307 112.669
rtibia 162.49
rfoot -34.0815 36.3451
rtoes -18.7754
lfemur -93.1336 101.094 -1.64379
ltibia 159.267
lfoot -54.1462 -49.5584
ltoes -4.30906
488
root 13.3377 6.63543 -16.3222 -1.92649 -74.9337 -3.26577
lowerback 35.368 1.99546 0.78088
upperback 8.79087 2.44056 5.33321
thorax -8.36246 0.690834 4.37015
lowerneck -18.8195 10.9676 -1.02009
upperneck 9.86463 15.5562 -3.80836
head 6.24419 7.17558 0.61152
rclavicle 2.3059e-014 -3.97569e-014
rhumerus -25.749 -28.8787 -62.1241
rradius 36.2509
rwrist -5.06998
rhand -18.354 14.9941
rfingers 7.12502
rthumb 7.9287 -14.8372
lclavicle 2.3059e-014 -3.97569e-014
lhumerus -24.9172 15.1546 77.6528
lradius 38.5406
lwrist -13.8159
lhand -1.04158 37.4929
lfingers 7.12502
lthumb 24.5924 65.9332
rfemur -219.287 -88.2737 135.542
rtibia 162.909
rfoot -33.515 38.2089
rtoes -17.2379
lfemur -98.0425 103.459 -6.53761
ltibia 159.644
lfoot -58.0776 -46.9701
ltoes -8.28198
489
root 13.3307 6.57972 -16.3142 -3.4426 -74.8077 -1.74574
lowerback 35.3345 2.05458 0.52253
upperback 8.76969 2.42647 5.26071
thorax -8.3809 0.691482 4.43569
lowerneck -18.6422 10.8897 -0.818811
upperneck 9.63334 15.4082 -3.97468
head 6.16946 7.10926 0.499894
rclavicle -1.59028e-015 -3.49861e-014
rhumerus -25.9691 -28.7501 -62.0533
rradius 36.2701
rwrist -5.18844
rhand -19.2673 14.6917
rfingers 7.12502
rthumb 7.04713 -15.171
lclavicle -1.59028e-015 -3.49861e-014
lhumerus -24.8 14.876 77.7898
lradius 38.4106
lwrist -13.5886
lhand -1.56284 36.9081
lfingers 7.12502
lthumb 24.0926 65.4155
rfemur -228.647 -87.9155 142.868
rtibia 163.326
rfoot -32.5283 39.2328
rtoes -16.0947
lfemur -98.6 104.088 -7.04888
ltibia 160.028
lfoot -56.3966 -49.0403
ltoes -3.19822
490
root 13.3168 6.54357 -16.3074 -4.2616 -74.8594 -1.27841
lowerback 35.6039 2.1198 0.569851
upperback 8.82989 2.51127 5.22562
thorax -8.41267 0.72393 4.33895
lowerneck -18.5849 10.8125 -0.7128
upperneck 9.60241 15.2822 -4.01795
head 6.16058 7.05056 0.454544
rclavicle 5.64548e-014 -9.54166e-015
rhumerus -26.1997 -29.0649 -61.8812
rradius 36.1661
rwrist -4.90505
rhand -19.4428 14.5753
rfingers 7.12502
rthumb 6.87776 -15.293
lclavicle 5.64548e-014 -9.54166e-015
lhumerus -24.6623 14.6941 77.8882
lradius 38.2964
lwrist -13.6303
lhand -1.58689 36.3224
lfingers 7.12502
lthumb 24.0696 64.8328
rfemur -241.272 -88.093 154.285
rtibia 163.513
rfoot -32.5766 39.6643
rtoes -17.3341
lfemur -101.879 105.643 -9.88946
ltibia 160.225
lfoot -50.9571 -55.2797
ltoes 11.5556
491
root 13.2997 6.51161 -16.2989 -3.98966 -75.0574 -1.90137
lowerback 35.8141 2.18376 0.773682
upperback 8.88336 2.66215 5.34762
thorax -8.43779 0.782939 4.30169
lowerneck -18.4345 10.8254 -0.786917
upperneck 9.5569 15.3159 -4.04113
head 6.11902 7.06759 0.451666
rclavicle 2.54444e-014 2.54444e-014
rhumerus -26.249 -29.2345 -61.7476
rradius 36.001
rwrist -4.69661
rhand -19.0006 14.078
rfingers 7.12502
rthumb 7.30457 -15.7759
lclavicle 2.54444e-014 2.54444e-014
lhumerus -24.7558 15.1287 78.0824
lradius 38.3365
lwrist -14.1978
lhand -1.36716 36.1032
lfingers 7.12502
lthumb 24.2802 64.5857
rfemur -256.075 -88.1781 168.81
rtibia 163.619
rfoot -33.3054 40.0299
rtoes -19.0645
lfemur -104.53 107.419 -11.4517
ltibia 160.424
lfoot -66.1875 -39.2044
ltoes -25.4252
492
root 13.2816 6.48115 -16.2847 -3.84921 -75.2899 -2.03595
lowerback 35.541 2.19757 0.842364
upperback 8.98634 2.68075 5.30067
thorax -8.21997 0.790249 4.21007
lowerneck -18.2752 10.9569 -0.475764
upperneck 9.27041 15.4303 -4.27505
head 6.04626 7.12842 0.33258
rclavicle 1.66979e-014 -1.27222e-014
rhumerus -26.1644 -29.7876 -61.9378
rradius 35.9169
rwrist -4.85664
rhand -18.0945 13.9571
rfingers 7.12502
rthumb 8.17915 -15.8646
lclavicle 1.66979e-014 -1.27222e-014
lhumerus -24.7106 15.6055 78.0446
lradius 38.4392
lwrist -14.2422
lhand -0.776545 36.6067
lfingers 7.12502
lthumb 24.8464 65.0122
rfemur -259.65 -88.0599 171.945
rtibia 163.729
rfoot -33.7543 40.4722
rtoes -19.3568
lfemur -105.217 108.723 -11.372
ltibia 160.637
lfoot -69.7313 -33.8177
ltoes -33.2905
493
root 13.3274 6.43535 -16.3443 -2.50652 -74.0264 -2.88444
lowerback 35.4177 1.70486 0.989015
upperback 8.76833 2.16292 5.37826
thorax -8.37811 0.561575 4.41301
lowerneck -18.0755 11.1274 0.303604
upperneck 8.87018 15.5384 -4.9143
head 6.00232 7.17213 0.022674
rclavicle 6.44062e-014 5.08889e-014
rhumerus -26.083 -30.5511 -62.2759
rradius 35.7645
rwrist -5.06188
rhand -17.5122 14.7348
rfingers 7.12502
rthumb 8.74104 -15.0642
lclavicle 6.44062e-014 5.08889e-014
lhumerus -24.4456 15.8489 77.8028
lradius 38.4584
lwrist -13.6305
lhand 0.0266784 37.0105
lfingers 7.12502
lthumb 25.6159 65.3075
rfemur -244.791 -86.7131 157.152
rtibia 164.298
rfoot -32.5646 39.7938
rtoes -18.2271
lfemur -97.4998 102.133 -2.38976
ltibia 160.733
lfoot -68.7436 -30.43
ltoes -39.5363
494
root 13.3427 6.42285 -16.3677 -1.62565 -73.5916 -3.66819
lowerback 35.3909 1.44622 1.26789
upperback 8.73633 1.94259 5.40198
thorax -8.37655 0.457667 4.37395
lowerneck -17.9209 11.2705 0.720099
upperneck 8.69634 15.6745 -5.28608
head 5.98964 7.23096 -0.143806
rclavicle 9.54166e-015 -5.725e-014
rhumerus -25.9847 -31.0333 -62.5007
rradius 35.4838
rwrist -4.62618
rhand -17.2899 15.422
rfingers 7.12502
rthumb 8.95565 -14.3679
lclavicle 9.54166e-015 -5.725e-014
lhumerus -24.2701 16.0811 77.6918
lradius 38.4357
lwrist -13.3276
lhand 0.010569 36.7926
lfingers 7.12502
lthumb 25.6005 65.0919
rfemur -237.917 -86.5185 150.463
rtibia 164.542
rfoot -31.8796 39.4851
rtoes -17.2412
lfemur -91.9483 99.5011 4.2396
ltibia 160.837
lfoot -59.532 -47.1514
ltoes -17.7505
495
root 13.3445 6.43514 -16.3728 -1.9673 -73.5052 -3.53054
lowerback 35.6507 1.40961 1.40611
upperback 8.77109 1.93793 5.36377
thorax -8.42251 0.449203 4.26131
lowerneck -18.077 11.3445 0.540373
upperneck 8.97263 15.7818 -4.90877
head 6.05793 7.2954 0.0230422
rclavicle 1.59028e-014 2.38542e-014
rhumerus -26.0768 -31.388 -62.5097
rradius 35.3403
rwrist -4.12241
rhand -17.0613 15.4304
rfingers 7.12502
rthumb 9.17618 -14.35
lclavicle 1.59028e-014 2.38542e-014
lhumerus -24.187 16.0601 77.7936
lradius 38.4385
lwrist -13.3897
lhand -0.0445346 36.4515
lfingers 7.12502
lthumb 25.5477 64.7584
rfemur -242.093 -86.6993 155.055
rtibia 164.469
rfoot -32.2794 39.1902
rtoes -17.0723
lfemur -90.107 98.1103 6.43651
ltibia 160.855
lfoot -58.3122 -48.3952
ltoes -16.0304
496
root 13.3353 6.46694 -16.3665 -2.41946 -73.6809 -3.37726
lowerback 36.0032 1.51305 1.4917
upperback 8.77945 2.09873 5.3704
thorax -8.54603 0.516892 4.16123
lowerneck -18.1111 11.3416 0.183926
upperneck 9.1549 15.8018 -4.41367
head 6.05037 7.32848 0.228946
rclavicle -5.56597e-015 6.36111e-015
rhumerus -26.3455 -30.8919 -62.4943
rradius 35.4164
rwrist -4.77514
rhand -17.3287 15.0494
rfingers 7.12502
rthumb 8.91816 -14.7421
lclavicle -5.56597e-015 6.36111e-015
lhumerus -24.2323 15.8605 78.0581
lradius 38.4008
lwrist -13.4454
lhand -0.0991915 36.3284
lfingers 7.12502
lthumb 25.4954 64.6428
rfemur -251.786 -87.0931 165.291
rtibia 164.214
rfoot -32.8546 39.1806
rtoes -16.6897
lfemur -94.1187 98.4136 2.01605
ltibia 160.696
lfoot -58.5925 -48.5087
ltoes -15.7541
497
root 13.3229 6.51644 -16.3583 -1.74518 -74.0214 -4.23376
lowerback 36.3477 1.60042 1.72622
upperback 8.64817 2.30807 5.43253
thorax -8.69451 0.605197 4.05109
lowerneck -17.6337 11.3354 0.0608627
upperneck 8.61048 15.7764 -4.38309
head 5.7872 7.34618 0.20457
rclavicle 1.27222e-014 -4.77083e-014
rhumerus -26.5619 -30.1599 -62.6131
rradius 35.4092
rwrist -5.39354
rhand -18.0351 15.2343
rfingers 7.12502
rthumb 8.23649 -14.5852
lclavicle 1.27222e-014 -4.77083e-014
lhumerus -24.3148 15.6155 78.2367
lradius 38.2684
lwrist -13.3354
lhand -0.49436 36.1071
lfingers 7.12502
lthumb 25.1168 64.475
rfemur -252.4 -87.9809 167.04
rtibia 163.838
rfoot -32.9576 38.926
rtoes -15.9075
lfemur -98.1278 99.6316 -2.42494
ltibia 160.426
lfoot -60.0485 -47.3671
ltoes -16.8832
498
root 13.3096 6.57617 -16.3499 -1.20132 -74.5162 -4.88727
lowerback 36.5236 1.72585 1.81963
upperback 8.67944 2.4916 5.45362
thorax -8.72988 0.682281 3.95289
lowerneck -17.4499 11.3498 -0.0881655
upperneck 8.23317 15.7865 -4.27461
head 5.61643 7.37319 0.232849
rclavicle -3.33958e-014 -1.74931e-014
rhumerus -26.5215 -30.1233 -62.8679
rradius 35.234
rwrist -5.69124
rhand -18.7952 16.0964
rfingers 7.12502
rthumb 7.50284 -13.7505
lclavicle -3.33958e-014 -1.74931e-014
lhumerus -24.3092 15.644 78.257
lradius 38.2323
lwrist -13.2762
lhand -0.19769 35.9068
lfingers 7.12502
lthumb 25.401 64.2346
rfemur -220.5 -89.2782 136.399
rtibia 163.355
rfoot -32.8415 38.3211
rtoes -15.4448
lfemur -101.571 101.78 -6.75736
ltibia 160.032
lfoot -61.3758 -47.0224
ltoes -15.9817
499
root 13.2919 6.63631 -16.3329 -2.41126 -75.053 -3.77184
lowerback 36.5725 1.94202 1.5308
upperback 8.83038 2.62477 5.38794
thorax -8.59859 0.739466 3.98278
lowerneck -17.643 11.3238 -0.800995
upperneck 8.27437 15.8084 -3.48664
head 5.53552 7.42075 0.574428
rclavicle 3.18055e-015 2.22639e-014
rhumerus -26.2719 -30.0233 -63.2955
rradius 35.3401
rwrist -7.49231
rhand -19.6272 16.2253
rfingers 7.12502
rthumb 6.69974 -13.6487
lclavicle 3.18055e-015 2.22639e-014
lhumerus -24.2447 15.9412 78.4388
lradius 38.1953
lwrist -13.626
lhand -0.0792402 35.9572
lfingers 7.12502
lthumb 25.5145 64.2688
rfemur -288.355 -90.4618 204.565
rtibia 162.832
rfoot -33.4037 38.4371
rtoes -15.6505
lfemur -104.838 105.542 -12.1781
ltibia 159.503
lfoot -63.0977 -46.287
ltoes -13.515
500
root 13.2751 6.70274 -16.3152 -3.58636 -75.4601 -2.60751
lowerback 36.4304 2.1578 1.28091
upperback 8.99073 2.77544 5.36632
thorax -8.3919 0.807048 4.03407
lowerneck -17.7349 11.3118 -1.16583
upperneck 8.24841 15.8331 -3.18121
head 5.48684 7.44585 0.719379
rclavicle -2.38542e-015 -3.49861e-014
rhumerus -26.0576 -29.4287 -63.7778
rradius 35.8162
rwrist -9.55596
rhand -20.5737 14.9538
rfingers 7.12502
rthumb 5.78595 -14.9472
lclavicle -2.38542e-015 -3.49861e-014
lhumerus -24.1346 15.8052 78.8411
lradius 38.0643
lwrist -14.0855
lhand -0.809315 36.086
lfingers 7.12502
lthumb 24.815 64.4959
rfemur -245.609 -90.9311 162.161
rtibia 162.238
rfoot -34.5456 38.8648
rtoes -16.11
lfemur -106.001 108.2 -15.3221
ltibia 158.964
lfoot -63.5941 -45.3489
ltoes -10.8601
